<?xml version="1.0" encoding="iso-8859-1"?>
<!-- Generator: Adobe Illustrator 23.0.2, SVG Export Plug-In . SVG Version: 6.00 Build 0)  -->
<svg version="1.1" id="&#x56FE;&#x5C42;_1" xmlns="http://www.w3.org/2000/svg" xmlns:xlink="http://www.w3.org/1999/xlink" x="0px"
	 y="0px" viewBox="0 0 500 500" style="enable-background:new 0 0 500 500;" xml:space="preserve" width="28px" heigth="28px">
<g>
	<g>
		<defs>
			<circle id="SVGID_1_" cx="253.5" cy="254.99" r="77.719"/>
		</defs>
		<use xlink:href="#SVGID_1_"  style="overflow:visible;fill:#5A78EC;"/>
		<clipPath id="SVGID_2_">
			<use xlink:href="#SVGID_1_"  style="overflow:visible;"/>
		</clipPath>
		<path style="clip-path:url(#SVGID_2_);fill:#262E49;" d="M161.533,230.379c0,0,36.269-31.088,28.497,1.295
			s5.181,98.444,46.631,40.155s63.47-88.081,55.698-44.041s-1.295,80.309,16.839,41.45c18.134-38.859,7.772-69.947,7.772-69.947
			l29.792,84.195l-37.564,45.336l-120.464,20.725L161.533,230.379z"/>
	</g>
	<g id="&#x661F;&#x7403;">
		<circle style="fill:#FFFFFF;" cx="224.355" cy="203.825" r="9.715"/>
		<circle style="fill:none;stroke:#FFFFFF;stroke-miterlimit:10;" cx="309.198" cy="218.721" r="4.534"/>
		<circle style="fill:#FFFFFF;" cx="301.427" cy="248.513" r="7.124"/>
		<circle style="fill:#FFD840;" cx="245.08" cy="293.202" r="6.477"/>
		<path style="fill:#FFD840;stroke:#232323;stroke-miterlimit:10;" d="M184.862,291.474"/>
		<path style="fill:#FFD840;" d="M223.399,326.665c-19.151,7.371-34.773,7.784-41.721-0.513
			c-12.861-15.356,8.869-54.736,48.535-87.957s82.249-47.703,95.11-32.347c4.389,5.241,4.75,13.28,1.743,22.917
			c0,0,4.153,13.272,4.153,21.043c0,19.43-3.195,27.305-3.195,27.305c41.192-44.98,60.249-89.901,43.47-109.935
			c-21.129-25.228-91.085-1.436-156.252,53.142c-14.775,12.374-28.035,25.268-39.461,38.105
			c-38.972,43.78-56.614,86.889-40.275,106.397c18.321,21.876,73.356,6.894,130.146-33.058c0,0-4.487,2.065-23.809-0.35
			C231.48,330.118,223.399,326.665,223.399,326.665z"/>
		<path style="fill:#232323;" d="M221.836,228.315c-0.185,0-0.368-0.078-0.496-0.231c-0.23-0.274-0.195-0.682,0.079-0.913
			c49.489-41.582,104.143-58.282,121.831-37.231c5.617,6.685,7.055,16.677,4.158,28.895c-0.082,0.348-0.432,0.563-0.779,0.481
			c-0.348-0.082-0.564-0.431-0.481-0.779c2.799-11.803,1.453-21.404-3.89-27.763c-17.228-20.505-71.064-3.734-120.006,37.389
			C222.131,228.265,221.983,228.315,221.836,228.315z"/>
		<path style="fill:#232323;" d="M184.615,266.645c-0.139,0-0.278-0.044-0.396-0.135c-0.283-0.219-0.335-0.626-0.116-0.909
			c3.722-4.81,7.814-9.656,12.162-14.403c0.242-0.264,0.651-0.281,0.915-0.04c0.264,0.242,0.281,0.651,0.04,0.915
			c-4.324,4.721-8.392,9.539-12.092,14.321C185,266.558,184.809,266.645,184.615,266.645z"/>
		<path style="fill:#232323;" d="M187.96,349.931c-10.738,0-19.084-3.068-24.209-9.167c-9.087-10.815-7.221-29.398,5.255-52.324
			c0.17-0.314,0.565-0.431,0.878-0.259c0.314,0.171,0.431,0.564,0.259,0.878c-12.026,22.101-13.995,40.644-5.4,50.872
			c9.102,10.832,29.062,11.611,54.764,2.133c0.334-0.125,0.708,0.047,0.832,0.384c0.123,0.335-0.048,0.708-0.384,0.832
			C207.907,347.721,197.072,349.931,187.96,349.931z"/>
	</g>
</g>
</svg>
